<svg width="15" height="15" viewBox="0 0 15 15" fill="none" xmlns="http://www.w3.org/2000/svg">
<path fill-rule="evenodd" clip-rule="evenodd" d="M0 2.00016C0 1.55814 0.175595 1.13421 0.488155 0.821651C0.800716 0.509091 1.22464 0.333496 1.66667 0.333496H6.27667C6.52096 0.333588 6.76224 0.38738 6.98343 0.491065C7.20462 0.594749 7.40032 0.74579 7.55667 0.933496L9.14 2.8335H0V2.00016ZM0 4.50016V12.8335C0 13.2755 0.175595 13.6994 0.488155 14.012C0.800716 14.3246 1.22464 14.5002 1.66667 14.5002H13.3333C13.7754 14.5002 14.1993 14.3246 14.5118 14.012C14.8244 13.6994 15 13.2755 15 12.8335V4.50016H0Z" fill="black"/>
</svg>
