<svg width="24" height="24" viewBox="0 0 24 24" fill="none" xmlns="http://www.w3.org/2000/svg">
<path fill-rule="evenodd" clip-rule="evenodd" d="M14 6.99951C14 6.46908 13.7893 5.96037 13.4142 5.5853C13.0391 5.21023 12.5304 4.99951 12 4.99951H4C3.46957 4.99951 2.96086 5.21023 2.58579 5.5853C2.21071 5.96037 2 6.46908 2 6.99951V16.9995C2 17.5299 2.21071 18.0387 2.58579 18.4137C2.96086 18.7888 3.46957 18.9995 4 18.9995H12C12.5304 18.9995 13.0391 18.7888 13.4142 18.4137C13.7893 18.0387 14 17.5299 14 16.9995V6.99951ZM16 16.3865L20.684 17.9485C20.8343 17.9986 20.9944 18.0122 21.151 17.9883C21.3077 17.9643 21.4564 17.9035 21.5849 17.8109C21.7134 17.7182 21.8181 17.5963 21.8903 17.4552C21.9624 17.3142 22 17.158 22 16.9995V6.99951C22 6.84106 21.9624 6.68487 21.8903 6.5438C21.8181 6.40274 21.7134 6.28085 21.5849 6.18817C21.4564 6.09549 21.3077 6.03468 21.151 6.01074C20.9944 5.98681 20.8343 6.00044 20.684 6.05051L16 7.61251V16.3865Z" fill="white"/>
</svg>
