<svg width="82" height="65" viewBox="0 0 82 65" fill="none" xmlns="http://www.w3.org/2000/svg">
<g opacity="0.03">
<path d="M64.3222 64.937C59.5935 64.937 55.3948 63.2249 51.7261 59.8008C48.1389 56.2951 46.3452 51.118 46.3452 44.2697C46.3452 31.4698 54.4165 16.7132 70.5591 0L81.3207 10.3948C77.815 13.6559 74.5947 17.3247 71.6597 21.4011C68.8062 25.396 66.9311 29.0647 66.0342 32.4074C70.6813 32.7335 74.3909 34.4863 77.1628 37.6659C79.9348 40.8455 81.3207 44.4735 81.3207 48.5499C81.3207 52.8709 79.7717 56.7027 76.6737 60.0454C73.5756 63.3065 69.4584 64.937 64.3222 64.937ZM18.3404 64.937C13.6118 64.937 9.41307 63.2249 5.74431 59.8008C2.15708 56.2951 0.363464 51.118 0.363464 44.2697C0.363464 31.4698 8.43473 16.7132 24.5773 0L35.339 10.3948C31.8333 13.6559 28.6129 17.3247 25.6779 21.4011C22.8244 25.396 20.9493 29.0647 20.0525 32.4074C24.6996 32.7335 28.4091 34.4863 31.181 37.6659C33.953 40.8455 35.339 44.4735 35.339 48.5499C35.339 52.8709 33.7899 56.7027 30.6919 60.0454C27.5938 63.3065 23.4766 64.937 18.3404 64.937Z" fill="#0A0909"/>
</g>
</svg>
