<svg width="14" height="14" viewBox="0 0 14 14" fill="none" xmlns="http://www.w3.org/2000/svg">
<path fill-rule="evenodd" clip-rule="evenodd" d="M0 7C0 3.1339 3.1339 0 7 0C10.8661 0 14 3.1339 14 7C14 10.8661 10.8661 14 7 14C3.1339 14 0 10.8661 0 7ZM9.5949 6.0949C9.72241 5.96288 9.79297 5.78606 9.79137 5.60252C9.78978 5.41898 9.71616 5.24341 9.58637 5.11363C9.45659 4.98384 9.28102 4.91022 9.09748 4.90863C8.91394 4.90703 8.73712 4.97759 8.6051 5.1051L6.3 7.4102L5.0449 6.1551C4.91288 6.02759 4.73606 5.95703 4.55252 5.95863C4.36898 5.96022 4.19341 6.03384 4.06363 6.16363C3.93384 6.29341 3.86022 6.46898 3.85863 6.65252C3.85703 6.83606 3.92759 7.01288 4.0551 7.1449L5.8051 8.8949C5.93637 9.02613 6.11439 9.09985 6.3 9.09985C6.48561 9.09985 6.66363 9.02613 6.7949 8.8949L9.5949 6.0949Z" fill="white"/>
</svg>
