<svg width="18" height="26" viewBox="0 0 18 26" fill="none" xmlns="http://www.w3.org/2000/svg">
<path d="M10.0609 19.0047C10.0609 19.0047 10.0609 19.0156 10.0609 19.0266V23.8172H12.4563C13.4078 23.8172 14.1844 24.2875 14.1844 24.8672C14.1844 25.4469 13.4078 25.9172 12.4563 25.9172H9.02187C9.01094 25.9172 9.01094 25.9172 9 25.9172C8.98906 25.9172 8.98906 25.9172 8.97813 25.9172H5.54375C4.59219 25.9172 3.81562 25.4469 3.81562 24.8672C3.81562 24.2875 4.59219 23.8172 5.54375 23.8172H7.93906V19.0156C7.93906 19.0156 7.93906 19.0047 7.93906 18.9937C3.11563 18.5453 0.534374 15.0453 0.534374 10.7797C0.534374 9.56562 0.982812 9.05156 1.71562 9.05156C2.44844 9.05156 2.50312 9.63125 2.50312 10.9766C2.50312 14.5531 5.22656 17.1344 9 17.1344C15.8906 17.1344 15.4969 11.0422 15.4969 10.9766C15.4969 9.51094 15.9016 9.05156 16.6781 9.05156C17.4547 9.05156 17.4656 9.86094 17.4656 10.7797C17.4656 15.0453 14.8844 18.5562 10.0609 19.0047ZM9 15.5813C6.36406 15.5813 4.23125 13.5031 4.23125 10.9328V4.74219C4.23125 2.17188 6.36406 0.09375 9 0.09375C11.6359 0.09375 13.7688 2.17188 13.7688 4.74219V10.9328C13.7688 13.5031 11.6359 15.5813 9 15.5813Z" fill="#ED5242"/>
</svg>
