<svg width="24" height="18" viewBox="0 0 24 18" fill="none" xmlns="http://www.w3.org/2000/svg">
<path fill-rule="evenodd" clip-rule="evenodd" d="M14.3333 3.16634C14.3333 2.5475 14.0875 1.95401 13.6499 1.51643C13.2123 1.07884 12.6188 0.833008 12 0.833008H2.66667C2.04783 0.833008 1.45433 1.07884 1.01675 1.51643C0.579165 1.95401 0.333332 2.5475 0.333332 3.16634V14.833C0.333332 15.4518 0.579165 16.0453 1.01675 16.4829C1.45433 16.9205 2.04783 17.1663 2.66667 17.1663H12C12.6188 17.1663 13.2123 16.9205 13.6499 16.4829C14.0875 16.0453 14.3333 15.4518 14.3333 14.833V3.16634ZM16.6667 14.1178L22.1313 15.9402C22.3067 15.9986 22.4935 16.0145 22.6762 15.9866C22.859 15.9586 23.0324 15.8877 23.1824 15.7796C23.3323 15.6714 23.4544 15.5292 23.5386 15.3647C23.6228 15.2001 23.6667 15.0179 23.6667 14.833V3.16634C23.6667 2.98148 23.6228 2.79926 23.5386 2.63468C23.4544 2.47011 23.3323 2.3279 23.1824 2.21978C23.0324 2.11165 22.859 2.0407 22.6762 2.01278C22.4935 1.98486 22.3067 2.00076 22.1313 2.05917L16.6667 3.88151V14.1178Z" fill="#ED5242"/>
</svg>
