<svg width="23" height="28" viewBox="0 0 23 28" fill="none" xmlns="http://www.w3.org/2000/svg">
<path fill-rule="evenodd" clip-rule="evenodd" d="M10.6109 0.849994L11.2092 0L11.7601 0.783909C12.0378 1.18042 12.0446 1.09155 12.0446 1.57238V3.18805C13.9072 4.97463 15.6367 6.69513 16.5827 8.6663C17.6777 10.9451 17.2555 11.7222 16.5533 13.8802C15.3702 17.5149 13.5189 19.3767 14.3949 23.3076L21.044 24.5405C22.8593 24.8572 22.988 27.8424 20.5812 27.9997H2.10812C1.42627 27.9997 0.803131 28.0339 0.328999 27.3912C-0.325753 26.5002 0.0242007 24.9165 1.13502 24.5974L8.07992 23.4193C8.55856 19.6729 8.18603 20.4249 6.94652 16.952C6.52657 15.7762 6.09985 14.7211 5.77699 13.584C5.38414 12.2007 4.97774 10.7446 5.46316 9.30664C5.7341 8.5045 6.61462 7.59526 7.161 6.92757C8.20409 5.65144 9.25847 4.39354 10.3399 3.17665V1.81393C10.3399 1.23056 10.2767 1.32171 10.6109 0.849994ZM11.7962 9.33399C11.8188 9.3112 11.8391 9.28613 11.8526 9.25879C12.2726 8.44981 10.7305 8.29257 10.5477 8.79391C10.489 8.95115 10.4664 9.21321 10.6086 9.33399C10.4144 9.33399 10.3309 9.3864 10.1593 9.48439C8.27183 10.5509 8.58114 13.7389 10.2722 14.7803V15.4959H10.2338C9.5723 15.4959 9.21783 15.5301 8.67597 15.047C8.14991 14.5775 7.72545 13.3515 7.55386 12.6724C7.12488 10.9724 7.31679 10.1384 8.12281 8.57059C8.84981 7.15773 9.93354 5.84969 11.2182 4.63509C13.1283 6.52422 14.7877 8.48399 15 10.6192C15.0135 11.1707 15 11.7131 14.9006 12.2303C14.4581 14.5661 14.0833 15.3614 12.1755 15.4799V14.8122H12.1891C12.5706 14.5525 12.8777 14.1787 13.1125 13.6911C13.7876 12.2896 13.7921 10.4005 12.3968 9.57554C12.1597 9.43198 12.0491 9.3431 11.7962 9.33399Z" fill="#ED5242"/>
</svg>
